<?xml version="1.0" encoding="UTF-8"?>
<svg width="752pt" height="752pt" version="1.1" viewBox="0 0 752 752" xmlns="http://www.w3.org/2000/svg">
 <path d="m376 163.07c-60.121 0-108.87 48.75-108.87 108.87 0 4.4688 0.24609 8.8438 0.76172 13.141v0.03125c0.007813 0.042969 0.023437 0.089844 0.03125 0.13281l0.050781 0.37891c0.51953 4.1211 1.2656 8.1992 2.2344 12.156v0.03125c0.007813 0.042968 0.015625 0.089844 0.03125 0.13281 1 4.0625 2.2656 8.0664 3.7305 11.973v0.03125c0.007812 0.03125 0.015625 0.058594 0.03125 0.082032 2.5156 6.7188 5.8398 13.141 9.7148 19.344 0.94531 1.5078 1.3672 2.375 1.5547 2.6641l0.082031 0.10938 0.03125 0.03125c2.2773 3.418 4.7344 6.6953 7.3711 9.8203 0.035156 0.042968 0.015625 0.03125 0.050782 0.082031 0.03125 0.035156 0.023437 0.015625 0.050781 0.050781 2.6562 3.1445 5.4688 6.1289 8.457 8.9531 0.44531 0.41406 1.5234 1.1992 3.0469 2.5312 2.3828 2.0938 4.4922 4.0117 6.4766 5.4961l13.875 10.418-16.488 5.418c-6.1211 2.0117-12.164 4.3672-18.172 6.9648v0.03125c-0.37109 0.16406-1.168 0.58594-2.4805 1.168-5.0547 2.2656-9.9766 4.6562-14.746 7.2383h-0.03125c-1.125 0.59766-2.4336 1.4141-4.0547 2.3398-4.1211 2.3516-8.1484 4.7812-12.023 7.3477-1.6875 1.1094-3.4648 2.4141-5.4375 3.8125-3.3945 2.3984-6.7109 4.8398-9.9297 7.3984-1.5234 1.207-2.5234 1.8438-2.8281 2.0938-0.49609 0.40625-1.3633 1.3008-2.8047 2.5312-2.7812 2.3672-5.5039 4.7812-8.1328 7.2656-1.7305 1.6367-3.4414 3.3242-5.1641 5.0625-2.5898 2.6055-5.0898 5.2695-7.5312 8-1.5742 1.7617-3.1211 3.5352-4.625 5.3359-2.418 2.8867-4.7656 5.8242-7.043 8.8438-1.4062 1.8633-2.7734 3.7461-4.1055 5.6328-1.3164 1.8633-2.4258 3.1836-3.1016 4.1875h0.03125c0.15625-0.23828-0.023438 0.058593-0.51953 1.0859l-0.24609 0.54688-0.35547 0.48828c-14.746 22.539-25.41 47.586-30.902 73.996-0.67969 3.2578-0.97656 6.5039-0.92578 9.7383v0.082031c0.10938 6.4453 1.6484 12.742 4.5156 18.527 1.4492 2.9297 3.2031 5.6992 5.2773 8.2422 8.332 10.242 20.578 16.051 33.785 16.051h338.7c13.207 0 25.426-5.8086 33.766-16.051l0.13281-0.16406c2.0195-2.5078 3.75-5.2148 5.1719-8.082 2.8633-5.7773 4.4023-12.082 4.5156-18.527v-0.082031c0.050781-3.2344-0.24609-6.4805-0.92578-9.7383-5.4922-26.41-16.16-51.457-30.902-73.996l-0.35547-0.48828-0.24609-0.54688c-0.49609-1.0273-0.67188-1.3242-0.51953-1.0859h0.03125c-0.67187-1.0078-1.7852-2.3242-3.1016-4.1875-1.332-1.8867-2.6992-3.7656-4.1055-5.6328-2.2773-3.0195-4.625-5.957-7.043-8.8438-1.5039-1.7969-3.0469-3.5742-4.625-5.3359-2.4414-2.7227-4.9492-5.3867-7.5312-8-1.7227-1.7383-3.4414-3.4258-5.1719-5.0625-2.625-2.4805-5.3516-4.8906-8.1328-7.2656-1.4414-1.2266-2.3008-2.125-2.8047-2.5312-0.3125-0.25-1.3086-0.88672-2.8281-2.0938-3.1875-2.5391-6.4531-4.957-9.7969-7.3164-2.0117-1.4219-3.9219-2.7812-5.7734-3.9961-3.7578-2.4805-7.6289-4.8164-11.617-7.1055-1.6719-0.95312-3.0781-1.8125-4.3008-2.4805h-0.03125c-4.7734-2.5898-9.6797-4.9805-14.719-7.2383-1.3008-0.58594-2.1094-1.0078-2.4805-1.168v-0.03125c-6.0078-2.5977-12.055-4.9492-18.172-6.9648l-16.488-5.418 13.875-10.418c1.9844-1.4883 4.0859-3.3945 6.4766-5.4961 1.5156-1.332 2.6133-2.1172 3.0469-2.5312 3.0195-2.8477 5.8477-5.8477 8.5156-9.0039 2.6562-3.1445 5.1289-6.4531 7.4297-9.9023l0.03125-0.03125c0.023438-0.035156 0.03125-0.074219 0.050782-0.10938 2.25-3.3906 4.3438-6.9336 6.2305-10.609-0.074218 0.14844-0.066406 0.125 0.03125-0.050781 1.8867-3.6758 3.5586-7.4062 5.0039-11.262l0.050782-0.16406v-0.03125c0.20703-0.55469 0.51953-1.8438 1.1406-3.7305 2.0195-6.0742 3.5664-12.336 4.4922-18.773 0.19141-1.3164 0.29688-1.5898 0.35547-1.7969l0.082031-0.51953v-0.03125c0.51953-4.3008 0.76172-8.6719 0.76172-13.141 0-60.121-48.75-108.87-108.87-108.87zm0 16.547c12.691 0 24.855 2.582 35.91 7.2656 33.145 14.039 56.395 46.93 56.395 85.043 0 3.0859-0.17188 6.1406-0.46484 9.1367-0.88672 9.0195-3.0859 17.664-6.3945 25.734-3.3086 8.0742-7.7266 15.59-13.059 22.332-8.0742 10.195-18.277 18.527-29.812 24.566-2.7461 1.4336-5.543 2.7148-8.4062 3.8633-9.1523 3.6641-19.062 6.0078-29.488 6.5273l-0.32422 0.03125h-0.32422c-1.3984-0.03125-2.7305-0.050781-4.0273-0.050781-1.2812 0-2.6055 0.03125-3.9961 0.050781h-0.32422l-0.32422-0.03125c-3.0703-0.15625-6.0742-0.45703-9.0352-0.89453-2.457-0.37109-4.9062-0.875-7.3477-1.4414h-0.32422l-1.0586-0.27344h-0.03125c-2.3242-0.58594-4.5156-1.3008-6.6875-2.043h-0.24609l-1.4961-0.51953c-1.6367-0.58594-2.6992-1.125-3.293-1.3633-1.25-0.50391-2.8867-1.0938-4.7891-1.9844v0.03125c-1.8047-0.84375-3.5156-1.8203-5.2539-2.7734h-0.27344l-2.1445-1.25c-2.4922-1.4648-4.8672-3.043-7.1836-4.707-2.3164-1.6641-4.5859-3.4258-6.7695-5.3359-2.1914-1.9102-4.2383-3.9062-6.1797-5.9336-1.9766-2.0703-3.8555-4.2266-5.6328-6.4766-10.672-13.48-17.672-30.035-19.453-48.07-0.29688-2.9961-0.46484-6.0547-0.46484-9.1367 0-47.633 36.383-87.094 82.863-91.844 3.1523-0.31641 6.3125-0.46484 9.4414-0.46484zm-4.8398 201.09h0.57031c1.4141 0.050781 2.8398 0.082031 4.2695 0.082031s2.8555-0.03125 4.2695-0.082031h0.54688c5.3711 0.13281 10.59 0.55469 15.695 1.0859 1.1406 0.11719 2.2109 0.25781 3.2422 0.37891h0.03125c3.168 0.38672 6.1211 0.89453 8.8945 1.3633 4.9648 0.82031 9.8398 1.8555 14.605 3.0195 2.0195 0.49609 4.4414 0.97656 7.125 1.7383 5.918 1.6719 11.676 3.6328 17.301 5.793h0.03125v0.03125c3.582 1.3828 6.9023 2.9023 10.062 4.3281 2.6406 1.1836 5.2148 2.4414 7.7266 3.6992h0.03125c3.4648 1.7461 7.043 3.5508 10.664 5.6602 2.0586 1.1914 3.6641 2.3242 5.0039 3.1523h0.03125c6.4062 3.9805 12.57 8.3242 18.5 13 1.9375 1.5312 3.9727 3.1289 6.0391 4.8984 2.9297 2.5 5.8242 5.0898 8.6484 7.8086h0.03125c2.7227 2.6211 5.2461 5.2852 7.6719 7.8867h-0.03125c5.4023 5.7773 10.707 11.84 15.562 18.469v0.03125c0.97656 1.3477 0.99219 1.3906 0.082031 0.13281 16.293 22.301 28.117 48.203 34.008 76.477v0.03125c0.82031 3.9648 0.75391 8.0508-0.19141 11.973-0.94531 3.9219-2.7656 7.5977-5.3359 10.746-3.0117 3.707-10.109 9.9609-20.898 9.9609h-338.7c-10.789 0-17.879-6.2539-20.898-9.9609-5.1445-6.3359-7.207-14.688-5.5508-22.719v-0.03125c5.7734-27.727 17.418-53.055 33.219-75.055 0.007812-0.015625 0.023437-0.050781 0.03125-0.050781 0.007812 0 0-0.03125 0-0.03125 0-0.007813 0.86719-1.4961 0.875-1.4961 4.7266-6.4609 9.8867-12.402 15.156-18.062 2.6562-2.8711 5.4102-5.7188 8.2969-8.4883v-0.03125c2.6328-2.5156 5.3555-4.9648 8.1328-7.3477 2.2578-1.9375 4.5-3.7305 6.6367-5.418 5.832-4.582 11.922-8.8281 18.203-12.734h0.03125c1.3398-0.82812 2.9453-1.9609 5.0078-3.1523 3.6172-2.1094 7.207-3.9141 10.664-5.6602h0.03125c2.5078-1.2578 5.082-2.5156 7.7266-3.6992 3.1602-1.4297 6.4805-2.9375 10.062-4.3281v-0.03125h0.03125c5.6328-2.1602 11.387-4.1211 17.301-5.793 2.6953-0.76953 5.1055-1.2422 7.125-1.7383 4.7734-1.1602 9.6406-2.1992 14.605-3.0195 2.7734-0.46484 5.7266-0.97656 8.8945-1.3633h0.03125c1.0273-0.125 2.0938-0.26562 3.2422-0.37891 5.0977-0.53125 10.301-0.95312 15.672-1.0859z"/>
</svg>
